<?xml version="1.0" encoding="utf-8"?>
<!-- Generator: Adobe Illustrator 22.1.0, SVG Export Plug-In . SVG Version: 6.00 Build 0)  -->
<svg version="1.1" id="图层_1" xmlns="http://www.w3.org/2000/svg" xmlns:xlink="http://www.w3.org/1999/xlink" x="0px"
     y="0px"
     viewBox="0 0 1024 1024" style="enable-background:new 0 0 1024 1024;" xml:space="preserve">
	<style type="text/css">
     .st0{fill:#606060;stroke:#606060;stroke-width:30;opacity:30%;}
     .st1{fill:#606060;stroke:#606060;stroke-width:20;opacity:30%;}
     .st2{fill:#606060;stroke:#606060;stroke-width:20;opacity:30%;}
     .st3{fill:#606060;stroke:#606060;stroke-width:20;opacity:30%;}
     .st4{fill:#606060;stroke:#606060;stroke-width:20;opacity:30%;}
        <!--     .st1{fill:#606060;stroke:#606060;stroke-width:20;}-->
        <!--     .st2{fill:none;stroke:#606060;stroke-width:1.094;stroke-miterlimit:10;}-->
        <!--     .st3{fill:none;stroke:#606060;stroke-width:1.1165;stroke-linecap:round;stroke-linejoin:round;stroke-miterlimit:10;}-->
        <!--     .st4{fill:none;stroke:#606060;stroke-width:1.1165;stroke-linecap:round;stroke-linejoin:round;stroke-miterlimit:10;}-->
    </style>

    <path class="st0" d="M1021.7,689.5c-8.6-27.7-41-43.5-44.8-72.2l-49.1-448.6c-0.7-6.2-4.5-11.4-9.9-13.8c-0.1,0-0.2-0.1-0.3-0.2L545.5,3.5
		c-11.2-4.7-23.6-4.7-34.9-0.1L138.3,154.7c-0.1,0.1-0.2,0.2-0.3,0.2c-2.8,1.2-5.2,3.3-6.9,5.9c-1.5,2.2-2.5,4.8-2.9,7.5
		C108.6,318.9,71.2,606,70,614.1c-1.2,7.2-15.6,24.3-26.2,36.8c-22.9,27-48.9,57.6-42.9,88.4c3.2,16.3,14.7,29.2,34.1,38.5
		c46.8,22.4,143.9,19.9,192.3-5c11.3-5.8,23.8-18.6,21.2,2.8v0c-2.4,11.9-0.8,24.3,4.5,35.1c12.3,23,33.8,38.7,58.3,42.7
		c18.9,3.1,38.2-0.5,54.9-10.2c0.6,10.8,5.6,20.8,13.8,27.2c9.3,5.9,20.5,7.2,30.8,3.5c-24.8,25.7-52.7,65.6-35.2,104.5
		c26,57.8,110.5,44.6,158.5,43.9c24.8-0.4,133.1-21.4,153.3-63.1c9.8-20.3,8.2-42.5,6.9-62c-1.3-19.1-2.5-35.6,5.4-48.7
		c12-19.8,65-35.5,100.1-46c17.5-5.2,32.6-9.7,43.5-14.4c16.9-7.3,26.7-25.5,35.3-41.5l0,0c3.1-6.7,7-12.9,11.5-18.5
		c9.7-1.5,21.3,3.8,33.6,9.4c13.7,7.5,28.8,11.8,44.2,12.4C997.7,748.8,1033.4,727.3,1021.7,689.5L1021.7,689.5z M522.2,35.3
		c3.8-1.6,8-1.6,11.8,0.1l330.1,134.1L533.3,285.3c-3.4,1.3-7.1,1.3-10.5,0l-0.3-0.1L191.9,169.5L522.2,35.3z M991.1,706.5
		L991.1,706.5c-6.6,6.3-15.2,9.6-24,9.2c-10.8-1.1-21.3-4.4-30.9-9.7c-15.7-7.1-33.5-15.2-52.8-11.4c-15.6,3.1-24.2,19.3-32.6,35
		c-5.7,10.7-12.8,24-19.4,26.8c-9.3,4-24.3,8.5-40.1,13.2c-32,9.5-66.9,19.9-91.7,35.3l-91.9-409.5c-1-4.4-3.6-8.2-7.2-10.6
		c-3.6-2.4-8-3.1-12.1-2.1c-4.1,1.1-7.7,3.8-9.9,7.7c-2.2,3.9-2.9,8.5-1.9,12.9l95.9,427.4c-13.2,22.4-11.5,47.1-10,68.8
		c1.1,16.5,2.2,32.2-3.4,43.9c-9.3,19.1-92.8,44.6-125.4,44.6c-0.4,0-0.7,0-1.1,0c-102.1,7.6-123.5-14.7-128-24.6
		c-8-17.6,10.8-46.6,19.6-57.5c15.8-11.4,32.8-36.3,24.7-55.3c-8.2-19.3-27.1-13.4-42.1-11.2c-17.1,2.5-9.1-14.5-6.9-26.3l80-427.7
		c1.7-9.2-3.9-18.2-12.6-20.1c-8.7-1.8-17.1,4.1-18.8,13.4l-78.8,421.5c-2.5,0.7-4.9,2-6.9,3.8c-12.6,12.2-29.6,17.8-46.4,15.2
		c-17.7-2.9-38.6-18.5-36-39.7h0c1.7-9.3,1.3-18.8-1.2-27.9c-2.1-7.2-5.8-13.8-11-19c15-45.3,55.9-186.1,40.7-335.5
		c-1-9.4-8.9-16.1-17.6-15.1c-8.8,1-15.1,9.4-14.2,18.8c15.3,150-30.5,295.5-41.4,327.4c-7.8,3.6-14.4,9.4-22,13.3
		c-40.3,20.7-126.8,23.1-165.4,4.6c-35.8-17.1,3.9-54.5,19.4-72.9c16.8-19.8,31.3-36.9,34-53.9c1.1-7,43.6-333.7,55.7-426.6
		c0,0,354.9,124.3,355.1,124.4l0,0c10.1,3.6,21,3.6,31.1,0l354.9-124.3l46.9,428.3c3.3,24.6,16.4,39.1,28.1,52
		c7.8,7.3,14,16.4,18.1,26.6C992.6,704.3,991.7,705.7,991.1,706.5L991.1,706.5z"/>
    <path class="st1" d="M558,514.3c1.9-9.2-3.6-18.3-12.2-20.3c-8.6-2-17.2,3.8-19,13.1c-1.1,5.3-25.8,131.8,25.6,366.8c2.3,9,10.7,14.5,19.2,12.7
		c4.1-1,7.7-3.8,10-7.6c2.2-3.8,3-8.5,2-12.9C534,639.7,557.7,515.7,558,514.3L558,514.3z"/>
    <path class="st2" d="M749.1,498.3c2.4-9-2.5-18.5-10.9-21.1c-8.5-2.6-17.3,2.6-19.8,11.6c-0.8,2.9-19.4,73.2,10.5,164.4v0
		c3.1,8.7,12.1,13.3,20.4,10.5c8.3-3.1,12.7-12.8,9.8-21.7C743.2,596,739.7,546.2,749.1,498.3L749.1,498.3z"/>
    <path class="st3" d="M852.5,314.7c-4.1-1.3-8.5-0.8-12.2,1.3c-3.7,2.2-6.5,5.8-7.7,10.2c-1.7,6.1-41.5,150-30.8,213.2
		c1.9,9.1,10,15.1,18.6,13.8c4.2-0.8,7.9-3.3,10.3-7.1c2.4-3.7,3.4-8.3,2.6-12.8c-7.7-45.8,19-158,30-197.4v0
		C865.8,326.9,861,317.4,852.5,314.7L852.5,314.7z"/>
    <path class="st4" d="M361.6,291.7c-7-5.6-17-4.1-22.3,3.4s-4,18.1,2.9,23.8c1.6,1.3,38.6,33.2,21,101.7l0,0c-1.2,5.1-0.1,10.5,2.9,14.7
		c3,4.2,7.6,6.7,12.5,6.9c7.2,0,13.5-5.1,15.4-12.5C417.7,338.1,363.9,293.6,361.6,291.7L361.6,291.7z"/>

</svg>
